<mxfile host="Electron" modified="2023-06-15T20:55:54.256Z" agent="Mozilla/5.0 (Windows NT 10.0; Win64; x64) AppleWebKit/537.36 (KHTML, like Gecko) draw.io/21.2.8 Chrome/112.0.5615.165 Electron/24.2.0 Safari/537.36" etag="mNNZuB4vZwo1zr0eNsUJ" version="21.2.8" type="device">
  <diagram name="Page-1" id="eKiHkVsurXvt_7CTBFG4">
    <mxGraphModel dx="1098" dy="828" grid="0" gridSize="10" guides="1" tooltips="1" connect="1" arrows="1" fold="1" page="1" pageScale="1" pageWidth="1169" pageHeight="1654" math="0" shadow="0">
      <root>
        <mxCell id="0" />
        <mxCell id="1" parent="0" />
        <mxCell id="WA0sEyi--77fJeU1WWNr-1" value="Hardware" style="rounded=1;whiteSpace=wrap;html=1;glass=1;strokeColor=#000000;fontFamily=Helvetica;fontSize=16;fontColor=default;fillColor=#E6E6E6;container=1;align=center;verticalAlign=bottom;labelPosition=center;verticalLabelPosition=top;" vertex="1" parent="1">
          <mxGeometry x="204" y="249.5" width="375" height="180.5" as="geometry">
            <mxRectangle x="204" y="249.5" width="66" height="25" as="alternateBounds" />
          </mxGeometry>
        </mxCell>
        <UserObject label="Electronics" link="https://www.scuttlerobot.org/resource/guide/wiring-guide/" linkTarget="_blank" id="WA0sEyi--77fJeU1WWNr-2">
          <mxCell style="rounded=1;whiteSpace=wrap;html=1;fontFamily=Lucida Console;fillColor=#d80073;strokeColor=#A50040;fontColor=#ffffff;glass=1;" vertex="1" parent="WA0sEyi--77fJeU1WWNr-1">
            <mxGeometry x="207.08955223880596" y="100.81585365853658" width="111.94029850746269" height="35.21951219512195" as="geometry" />
          </mxCell>
        </UserObject>
        <UserObject label="Models" link="https://www.scuttlerobot.org/resources/models/" linkTarget="_blank" id="WA0sEyi--77fJeU1WWNr-3">
          <mxCell style="rounded=1;whiteSpace=wrap;html=1;fontFamily=Lucida Console;fillColor=#a20025;strokeColor=#6F0000;fontColor=#ffffff;glass=1;" vertex="1" parent="WA0sEyi--77fJeU1WWNr-1">
            <mxGeometry x="208.95522388059703" y="25.09390243902439" width="111.94029850746269" height="35.21951219512195" as="geometry" />
          </mxCell>
        </UserObject>
        <UserObject label="Hardware" link="https://www.scuttlerobot.org/resources/videos/?vi=&amp;ca=&amp;ta%5B%5D=99" linkTarget="_blank" id="WA0sEyi--77fJeU1WWNr-4">
          <mxCell style="rounded=1;whiteSpace=wrap;html=1;fillColor=#647687;strokeColor=#314354;glass=1;fontColor=#ffffff;fontFamily=Lucida Console;" vertex="1" parent="WA0sEyi--77fJeU1WWNr-1">
            <mxGeometry x="21.455223880597014" y="55.9109756097561" width="111.94029850746269" height="52.829268292682926" as="geometry" />
          </mxCell>
        </UserObject>
        <mxCell id="WA0sEyi--77fJeU1WWNr-5" style="edgeStyle=entityRelationEdgeStyle;shape=connector;rounded=1;orthogonalLoop=1;jettySize=auto;html=1;exitX=1;exitY=0.5;exitDx=0;exitDy=0;entryX=0;entryY=0.5;entryDx=0;entryDy=0;labelBackgroundColor=default;strokeColor=default;strokeWidth=2;fontFamily=Helvetica;fontSize=11;fontColor=default;endArrow=classic;" edge="1" parent="WA0sEyi--77fJeU1WWNr-1" source="WA0sEyi--77fJeU1WWNr-4" target="WA0sEyi--77fJeU1WWNr-2">
          <mxGeometry relative="1" as="geometry">
            <mxPoint x="131.52985074626866" y="90.25" as="sourcePoint" />
          </mxGeometry>
        </mxCell>
        <mxCell id="WA0sEyi--77fJeU1WWNr-6" style="edgeStyle=entityRelationEdgeStyle;shape=connector;rounded=1;orthogonalLoop=1;jettySize=auto;html=1;exitX=1;exitY=0.5;exitDx=0;exitDy=0;labelBackgroundColor=default;strokeColor=default;strokeWidth=2;fontFamily=Helvetica;fontSize=11;fontColor=default;endArrow=classic;" edge="1" parent="WA0sEyi--77fJeU1WWNr-1" source="WA0sEyi--77fJeU1WWNr-4" target="WA0sEyi--77fJeU1WWNr-3">
          <mxGeometry relative="1" as="geometry">
            <mxPoint x="131.52985074626866" y="90.25" as="sourcePoint" />
          </mxGeometry>
        </mxCell>
        <mxCell id="WA0sEyi--77fJeU1WWNr-7" style="edgeStyle=entityRelationEdgeStyle;orthogonalLoop=1;jettySize=auto;html=1;exitX=1;exitY=0.5;exitDx=0;exitDy=0;entryX=0;entryY=0.75;entryDx=0;entryDy=0;strokeWidth=2;rounded=1;" edge="1" parent="1" source="WA0sEyi--77fJeU1WWNr-9" target="WA0sEyi--77fJeU1WWNr-1">
          <mxGeometry relative="1" as="geometry" />
        </mxCell>
        <mxCell id="WA0sEyi--77fJeU1WWNr-8" style="edgeStyle=entityRelationEdgeStyle;orthogonalLoop=1;jettySize=auto;html=1;exitX=1;exitY=0.5;exitDx=0;exitDy=0;entryX=0;entryY=0.5;entryDx=0;entryDy=0;strokeWidth=2;rounded=1;" edge="1" parent="1" source="WA0sEyi--77fJeU1WWNr-9" target="WA0sEyi--77fJeU1WWNr-12">
          <mxGeometry relative="1" as="geometry" />
        </mxCell>
        <UserObject label="SCUTTLE" link="https://www.scuttlerobot.org/" linkTarget="_blank" id="WA0sEyi--77fJeU1WWNr-9">
          <mxCell style="rounded=1;whiteSpace=wrap;html=1;fontFamily=Lucida Console;fillColor=#647687;strokeColor=#314354;fontColor=#ffffff;glass=1;" vertex="1" parent="1">
            <mxGeometry x="13" y="420" width="120" height="60" as="geometry" />
          </mxCell>
        </UserObject>
        <mxCell id="WA0sEyi--77fJeU1WWNr-10" style="edgeStyle=orthogonalEdgeStyle;rounded=1;orthogonalLoop=1;jettySize=auto;html=1;entryX=0;entryY=0.5;entryDx=0;entryDy=0;strokeWidth=2;exitX=1;exitY=0.5;exitDx=0;exitDy=0;" edge="1" parent="1" source="WA0sEyi--77fJeU1WWNr-12" target="WA0sEyi--77fJeU1WWNr-14">
          <mxGeometry relative="1" as="geometry">
            <mxPoint x="335" y="553" as="sourcePoint" />
          </mxGeometry>
        </mxCell>
        <mxCell id="WA0sEyi--77fJeU1WWNr-11" style="edgeStyle=orthogonalEdgeStyle;rounded=1;orthogonalLoop=1;jettySize=auto;html=1;exitX=1;exitY=0.5;exitDx=0;exitDy=0;entryX=0;entryY=0.5;entryDx=0;entryDy=0;strokeWidth=2;" edge="1" parent="1" source="WA0sEyi--77fJeU1WWNr-12" target="WA0sEyi--77fJeU1WWNr-13">
          <mxGeometry relative="1" as="geometry">
            <mxPoint x="345" y="552" as="sourcePoint" />
          </mxGeometry>
        </mxCell>
        <UserObject label="software" link="https://www.scuttlerobot.org/resources/software/" linkTarget="_blank" id="WA0sEyi--77fJeU1WWNr-12">
          <mxCell style="rounded=1;whiteSpace=wrap;html=1;fontFamily=Lucida Console;fillColor=#647687;strokeColor=#314354;fontColor=#ffffff;glass=1;" vertex="1" parent="1">
            <mxGeometry x="224" y="522" width="120" height="60" as="geometry" />
          </mxCell>
        </UserObject>
        <UserObject label="Linux" link="https://www.scuttlerobot.org/resource/guide/beginners-guide/" linkTarget="_blank" id="WA0sEyi--77fJeU1WWNr-13">
          <mxCell style="rounded=1;whiteSpace=wrap;html=1;fontFamily=Lucida Console;fillColor=#1ba1e2;strokeColor=#006EAF;fontColor=#ffffff;glass=1;" vertex="1" parent="1">
            <mxGeometry x="423" y="572" width="120" height="40" as="geometry" />
          </mxCell>
        </UserObject>
        <UserObject label="Python" link="https://www.scuttlerobot.org/resource/guide/software-guide/" linkTarget="_blank" id="WA0sEyi--77fJeU1WWNr-14">
          <mxCell style="rounded=1;whiteSpace=wrap;html=1;fontFamily=Lucida Console;fillColor=#6a00ff;strokeColor=#3700CC;fontColor=#ffffff;glass=1;" vertex="1" parent="1">
            <mxGeometry x="423" y="472" width="120" height="40" as="geometry" />
          </mxCell>
        </UserObject>
      </root>
    </mxGraphModel>
  </diagram>
</mxfile>
